<svg width="121" height="89" viewBox="0 0 121 89" fill="none" xmlns="http://www.w3.org/2000/svg">
<g clip-path="url(#clip0_9_35)">
<path opacity="0.1" d="M1.30695 47.3642C3.22159 55.5382 7.27478 62.604 13.6805 66.029C26.9926 73.1466 57.0148 69.476 79.4215 65.2578C90.7436 63.1337 101.021 57.2654 108.598 48.598L1.30695 47.3642Z" fill="#154360"/>
<path opacity="0.1" d="M118.805 8.89119H106.511C106.229 8.89119 105.959 8.77936 105.76 8.58031C105.56 8.38125 105.448 8.11128 105.448 7.82977C105.448 7.54827 105.56 7.2783 105.76 7.07924C105.959 6.88019 106.229 6.76836 106.511 6.76836H108.636C108.355 6.76836 108.084 6.65654 107.885 6.45748C107.686 6.25843 107.574 5.98845 107.574 5.70695C107.574 5.42545 107.686 5.15547 107.885 4.95642C108.084 4.75736 108.355 4.64554 108.636 4.64554H107.119C106.837 4.64554 106.567 4.53371 106.367 4.33466C106.168 4.1356 106.056 3.86563 106.056 3.58413C106.056 3.30262 106.168 3.03265 106.367 2.83359C106.567 2.63454 106.837 2.52271 107.119 2.52271H113.536C112.112 1.86174 110.447 1.39135 108.531 1.14459C91.034 -1.10052 84.7871 0.384466 82.5835 1.91572C79.8648 3.79949 76.8318 5.18533 73.5904 5.85291C62.7951 8.07709 42.6064 10.754 24.3081 4.99585C15.2135 2.13164 8.45378 6.96996 4.4028 15.0515H120.939C120.787 12.7028 120.332 10.5348 119.496 8.63561C119.304 8.80073 119.059 8.89144 118.805 8.89119Z" fill="#154360"/>
<path opacity="0.1" d="M0.263589 30.3056C-0.208665 35.0593 -0.0484535 39.8545 0.740045 44.5661L108.679 48.5088C111.684 45.0564 114.207 41.2136 116.179 37.085L0.263589 30.3056ZM42.9549 40.4791H40.8296C41.1115 40.4791 41.3818 40.5909 41.581 40.79C41.7803 40.989 41.8923 41.259 41.8923 41.5405C41.8923 41.822 41.7803 42.092 41.581 42.291C41.3818 42.4901 41.1115 42.6019 40.8296 42.6019H28.5355C28.2537 42.6019 27.9834 42.4901 27.7841 42.291C27.5848 42.092 27.4729 41.822 27.4729 41.5405C27.4729 41.259 27.5848 40.989 27.7841 40.79C27.9834 40.5909 28.2537 40.4791 28.5355 40.4791H30.6608C30.379 40.4791 30.1087 40.3673 29.9094 40.1682C29.7101 39.9691 29.5982 39.6992 29.5982 39.4177C29.5982 39.1362 29.7101 38.8662 29.9094 38.6671C30.1087 38.4681 30.379 38.3563 30.6608 38.3563H29.1432C28.8614 38.3563 28.5911 38.2444 28.3918 38.0454C28.1925 37.8463 28.0806 37.5763 28.0806 37.2948C28.0806 37.0133 28.1925 36.7434 28.3918 36.5443C28.5911 36.3453 28.8614 36.2334 29.1432 36.2334H41.4373C41.7192 36.2334 41.9895 36.3453 42.1887 36.5443C42.388 36.7434 42.5 37.0133 42.5 37.2948C42.5 37.5763 42.388 37.8463 42.1887 38.0454C41.9895 38.2444 41.7192 38.3563 41.4373 38.3563H42.9549C43.2368 38.3563 43.5071 38.4681 43.7063 38.6671C43.9056 38.8662 44.0176 39.1362 44.0176 39.4177C44.0176 39.6992 43.9056 39.9691 43.7063 40.1682C43.5071 40.3673 43.2368 40.4791 42.9549 40.4791Z" fill="#154360"/>
<path opacity="0.1" d="M120.945 15.1242L3.10028 17.9884C1.6676 21.6678 0.722413 25.8286 0.28125 30.1426H118.88C119.655 27.6091 120.227 25.0185 120.593 22.3949C120.946 19.8589 121.087 17.4078 120.945 15.1242ZM24.2055 24.5056H22.0802C22.3621 24.5056 22.6323 24.6174 22.8316 24.8164C23.0309 25.0155 23.1429 25.2855 23.1429 25.567C23.1429 25.8485 23.0309 26.1185 22.8316 26.3175C22.6323 26.5166 22.3621 26.6284 22.0802 26.6284H9.78611C9.50427 26.6284 9.23398 26.5166 9.0347 26.3175C8.83541 26.1185 8.72346 25.8485 8.72346 25.567C8.72346 25.2855 8.83541 25.0155 9.0347 24.8164C9.23398 24.6174 9.50427 24.5056 9.78611 24.5056H11.9114C11.6296 24.5056 11.3593 24.3937 11.16 24.1947C10.9607 23.9956 10.8488 23.7257 10.8488 23.4442C10.8488 23.1627 10.9607 22.8927 11.16 22.6936C11.3593 22.4946 11.6296 22.3827 11.9114 22.3827H10.3938C10.112 22.3827 9.84169 22.2709 9.6424 22.0719C9.44312 21.8728 9.33116 21.6028 9.33116 21.3213C9.33116 21.0398 9.44312 20.7699 9.6424 20.5708C9.84169 20.3717 10.112 20.2599 10.3938 20.2599H22.6879C22.9698 20.2599 23.24 20.3717 23.4393 20.5708C23.6386 20.7699 23.7506 21.0398 23.7506 21.3213C23.7506 21.6028 23.6386 21.8728 23.4393 22.0719C23.24 22.2709 22.9698 22.3827 22.6879 22.3827H24.2055C24.4874 22.3827 24.7576 22.4946 24.9569 22.6936C25.1562 22.8927 25.2682 23.1627 25.2682 23.4442C25.2682 23.7257 25.1562 23.9956 24.9569 24.1947C24.7576 24.3937 24.4874 24.5056 24.2055 24.5056Z" fill="#154360"/>
<g opacity="0.1">
<path d="M74.7275 68.6619C74.7275 68.6619 77.8377 61.0056 83.6456 58.1656C86.0903 56.9914 88.0877 55.0567 89.3377 52.652C89.9216 51.5046 90.399 50.3062 90.7638 49.0717" stroke="#535461" stroke-width="2" stroke-miterlimit="10"/>
<path d="M94.4133 47.2596C93.8078 48.0197 90.6744 49.1323 90.6744 49.1323C90.6744 49.1323 91.0516 45.8275 91.6571 45.0728C91.9577 44.7391 92.3745 44.5325 92.8224 44.4952C93.2703 44.4579 93.7155 44.5927 94.0673 44.8722C94.4191 45.1516 94.6509 45.5545 94.7154 45.9988C94.7799 46.4431 94.6722 46.8952 94.4144 47.2629L94.4133 47.2596Z" fill="#154360"/>
<path d="M93.3379 53.281C92.4159 53.5906 89.1822 52.8205 89.1822 52.8205C89.1822 52.8205 91.2943 50.256 92.2163 49.9464C92.6495 49.8316 93.1103 49.8858 93.505 50.098C93.8997 50.3101 94.1988 50.6643 94.3415 51.0887C94.4843 51.5131 94.46 51.9759 94.2736 52.383C94.0872 52.7902 93.7527 53.1112 93.3379 53.281Z" fill="#154360"/>
<path d="M87.508 60.3975C86.5562 60.2003 84.153 57.9045 84.153 57.9045C84.153 57.9045 87.272 56.7555 88.2249 56.9527C88.6561 57.0728 89.0255 57.352 89.2583 57.7339C89.4911 58.1157 89.5699 58.5717 89.4788 59.0094C89.3877 59.4472 89.1334 59.834 88.7675 60.0915C88.4016 60.349 87.9514 60.458 87.508 60.3964V60.3975Z" fill="#154360"/>
<path d="M81.8832 64.7908C80.9115 64.7566 78.1542 62.9004 78.1542 62.9004C78.1542 62.9004 81.035 61.2446 82.0067 61.2755C82.2482 61.268 82.4886 61.31 82.7131 61.3991C82.9377 61.4882 83.1415 61.6223 83.312 61.7933C83.4825 61.9642 83.616 62.1683 83.7043 62.393C83.7927 62.6176 83.8338 62.8579 83.8254 63.099C83.8169 63.3402 83.7589 63.5771 83.6551 63.7949C83.5512 64.0128 83.4037 64.2071 83.2216 64.3656C83.0395 64.5242 82.8268 64.6438 82.5966 64.7169C82.3663 64.7901 82.1235 64.8152 81.8832 64.7908Z" fill="#154360"/>
<path d="M86.1713 50.6691C86.2959 51.633 88.4013 54.202 88.4013 54.202C88.4013 54.202 89.7877 51.1835 89.6642 50.2196C89.578 49.7804 89.3278 49.3904 88.9644 49.1287C88.6009 48.867 88.1514 48.7532 87.707 48.8103C87.2626 48.8675 86.8566 49.0914 86.5714 49.4366C86.2862 49.7818 86.1432 50.2224 86.1713 50.6691Z" fill="#154360"/>
<path d="M79.6575 55.8897C80.0645 56.771 82.8438 58.5941 82.8438 58.5941C82.8438 58.5941 83.2629 55.2992 82.8559 54.4179C82.7692 54.193 82.6372 53.9882 82.4681 53.8162C82.2991 53.6443 82.0965 53.5088 81.8729 53.4181C81.6493 53.3275 81.4095 53.2836 81.1682 53.2892C80.927 53.2948 80.6895 53.3497 80.4703 53.4506C80.2512 53.5515 80.0551 53.6963 79.8942 53.8759C79.7332 54.0555 79.6109 54.2661 79.5347 54.4948C79.4586 54.7235 79.4301 54.9654 79.4513 55.2055C79.4724 55.4456 79.5426 55.6788 79.6575 55.8908V55.8897Z" fill="#154360"/>
<path d="M74.0238 61.8318C74.2753 62.7704 76.7072 65.0353 76.7072 65.0353C76.7072 65.0353 77.6778 61.8593 77.4252 60.9208C77.2808 60.4974 76.9807 60.1447 76.5857 59.9342C76.1907 59.7236 75.7303 59.6709 75.2978 59.7867C74.8653 59.9026 74.4931 60.1783 74.2565 60.558C74.02 60.9377 73.9368 61.3931 74.0238 61.8318Z" fill="#154360"/>
<path opacity="0.25" d="M94.4133 47.2596C93.8078 48.0197 90.6744 49.1323 90.6744 49.1323C90.6744 49.1323 91.0516 45.8275 91.6571 45.0728C91.9577 44.7391 92.3745 44.5325 92.8224 44.4952C93.2703 44.4579 93.7155 44.5927 94.0673 44.8722C94.4191 45.1516 94.6509 45.5545 94.7154 45.9988C94.7799 46.4431 94.6722 46.8952 94.4144 47.2629L94.4133 47.2596Z" fill="black"/>
<path opacity="0.25" d="M93.3379 53.281C92.4159 53.5906 89.1822 52.8205 89.1822 52.8205C89.1822 52.8205 91.2943 50.256 92.2163 49.9464C92.6495 49.8316 93.1103 49.8858 93.505 50.098C93.8997 50.3101 94.1988 50.6643 94.3415 51.0887C94.4843 51.5131 94.46 51.9759 94.2736 52.383C94.0872 52.7902 93.7527 53.1112 93.3379 53.281Z" fill="black"/>
<path opacity="0.25" d="M87.508 60.3975C86.5562 60.2003 84.153 57.9045 84.153 57.9045C84.153 57.9045 87.272 56.7555 88.2249 56.9527C88.6561 57.0728 89.0255 57.352 89.2583 57.7339C89.4911 58.1157 89.5699 58.5717 89.4788 59.0094C89.3877 59.4472 89.1334 59.834 88.7675 60.0915C88.4016 60.349 87.9514 60.458 87.508 60.3964V60.3975Z" fill="black"/>
<path opacity="0.25" d="M81.8832 64.7908C80.9115 64.7566 78.1542 62.9004 78.1542 62.9004C78.1542 62.9004 81.035 61.2446 82.0067 61.2755C82.2482 61.268 82.4886 61.31 82.7131 61.3991C82.9377 61.4882 83.1415 61.6223 83.312 61.7933C83.4825 61.9642 83.616 62.1683 83.7043 62.393C83.7927 62.6176 83.8338 62.8579 83.8254 63.099C83.8169 63.3402 83.7589 63.5771 83.6551 63.7949C83.5512 64.0128 83.4037 64.2071 83.2216 64.3656C83.0395 64.5242 82.8268 64.6438 82.5966 64.7169C82.3663 64.7901 82.1235 64.8152 81.8832 64.7908Z" fill="black"/>
<path opacity="0.25" d="M86.1713 50.6691C86.2959 51.633 88.4013 54.202 88.4013 54.202C88.4013 54.202 89.7877 51.1835 89.6642 50.2196C89.578 49.7804 89.3278 49.3904 88.9644 49.1287C88.6009 48.867 88.1514 48.7532 87.707 48.8103C87.2626 48.8675 86.8566 49.0914 86.5714 49.4366C86.2862 49.7818 86.1432 50.2224 86.1713 50.6691Z" fill="black"/>
<path opacity="0.25" d="M79.6575 55.8897C80.0645 56.771 82.8438 58.5941 82.8438 58.5941C82.8438 58.5941 83.2629 55.2992 82.8559 54.4179C82.7692 54.193 82.6372 53.9882 82.4681 53.8162C82.2991 53.6443 82.0965 53.5088 81.8729 53.4181C81.6493 53.3275 81.4095 53.2836 81.1682 53.2892C80.927 53.2948 80.6895 53.3497 80.4703 53.4506C80.2512 53.5515 80.0551 53.6963 79.8942 53.8759C79.7332 54.0555 79.6109 54.2661 79.5347 54.4948C79.4586 54.7235 79.4301 54.9654 79.4513 55.2055C79.4724 55.4456 79.5426 55.6788 79.6575 55.8908V55.8897Z" fill="black"/>
<path opacity="0.25" d="M74.0238 61.8318C74.2753 62.7704 76.7072 65.0353 76.7072 65.0353C76.7072 65.0353 77.6778 61.8593 77.4252 60.9208C77.2808 60.4974 76.9807 60.1447 76.5857 59.9342C76.1907 59.7236 75.7303 59.6709 75.2978 59.7867C74.8653 59.9026 74.4931 60.1783 74.2565 60.558C74.02 60.9377 73.9368 61.3931 74.0238 61.8318Z" fill="black"/>
</g>
<g opacity="0.1">
<path d="M72.5217 57.4672C72.5217 57.4672 72.9143 49.2138 77.4506 44.6102C79.3637 42.6907 80.6021 40.2033 80.9799 37.5212C81.15 36.2464 81.2028 34.9588 81.1376 33.6744" stroke="#535461" stroke-width="2" stroke-miterlimit="10"/>
<path d="M83.992 30.7562C83.6732 31.6738 81.0858 33.7592 81.0858 33.7592C81.0858 33.7592 80.3468 30.5215 80.6656 29.6039C80.7288 29.3705 80.8394 29.1525 80.9906 28.9636C81.1417 28.7748 81.3301 28.619 81.5441 28.5059C81.7582 28.3929 81.9932 28.3251 82.2345 28.3066C82.4759 28.2882 82.7185 28.3196 82.9473 28.3988C83.176 28.478 83.3859 28.6034 83.5641 28.7672C83.7422 28.9309 83.8847 29.1295 83.9827 29.3506C84.0806 29.5718 84.132 29.8106 84.1336 30.0524C84.1352 30.2942 84.087 30.5338 83.992 30.7562Z" fill="#154360"/>
<path d="M84.9713 36.7886C84.1993 37.3857 80.8972 37.7316 80.8972 37.7316C80.8972 37.7316 82.0387 34.6118 82.8052 34.0148C82.9855 33.8546 83.1968 33.7331 83.426 33.6577C83.6552 33.5824 83.8975 33.5548 84.1378 33.5766C84.3781 33.5985 84.6114 33.6693 84.8232 33.7848C85.035 33.9003 85.2208 34.0579 85.3692 34.2479C85.5176 34.438 85.6254 34.6564 85.686 34.8897C85.7465 35.123 85.7585 35.3663 85.7212 35.6044C85.6839 35.8425 85.5982 36.0705 85.4692 36.2741C85.3402 36.4778 85.1707 36.653 84.9713 36.7886Z" fill="#154360"/>
<path d="M81.8336 45.4386C80.8696 45.5675 77.841 44.1982 77.841 44.1982C77.841 44.1982 80.4031 42.0808 81.3703 41.952C81.607 41.9045 81.8509 41.9061 82.0869 41.9566C82.3229 42.007 82.5461 42.1053 82.7425 42.2454C82.939 42.3854 83.1046 42.5642 83.2292 42.7707C83.3537 42.9773 83.4345 43.2071 83.4665 43.4461C83.4986 43.685 83.4812 43.928 83.4155 44.16C83.3498 44.392 83.2371 44.608 83.0845 44.7948C82.9318 44.9815 82.7424 45.135 82.528 45.2458C82.3136 45.3565 82.0788 45.4221 81.838 45.4386H81.8336Z" fill="#154360"/>
<path d="M77.9855 51.4457C77.0569 51.7355 73.8397 50.8949 73.8397 50.8949C73.8397 50.8949 76.0058 48.3755 76.9344 48.0858C77.3702 47.9796 77.8302 48.0431 78.2207 48.2635C78.6113 48.4839 78.9032 48.8445 79.037 49.2721C79.1709 49.6998 79.1367 50.1623 78.9414 50.5656C78.746 50.969 78.4043 51.2829 77.9855 51.4435V51.4457Z" fill="#154360"/>
<path d="M77.3425 36.7027C77.7837 37.5708 80.6204 39.297 80.6204 39.297C80.6204 39.297 80.9259 35.9922 80.4891 35.1219C80.2625 34.7351 79.8969 34.4491 79.4667 34.322C79.0365 34.1948 78.574 34.2362 78.1732 34.4375C77.7724 34.6389 77.4634 34.9852 77.3091 35.406C77.1548 35.8267 77.1668 36.2904 77.3425 36.7027Z" fill="#154360"/>
<path d="M72.9309 43.7861C73.6081 44.4835 76.8352 45.2822 76.8352 45.2822C76.8352 45.2822 76.1371 42.0357 75.4599 41.3383C75.1278 41.0367 74.6932 40.8728 74.2444 40.8799C73.7957 40.8871 73.3665 41.0648 73.0443 41.3768C72.722 41.6888 72.5309 42.1118 72.5098 42.5596C72.4888 43.0074 72.6394 43.4464 72.9309 43.7873V43.7861Z" fill="#154360"/>
<path d="M69.5891 51.2573C70.1405 52.0593 73.1846 53.3912 73.1846 53.3912C73.1846 53.3912 73.0456 50.0731 72.4963 49.2711C72.2185 48.9236 71.8194 48.6938 71.379 48.6278C70.9387 48.5619 70.4897 48.6647 70.122 48.9155C69.7543 49.1664 69.4952 49.5468 69.3966 49.9805C69.2979 50.4142 69.3671 50.8691 69.5902 51.254L69.5891 51.2573Z" fill="#154360"/>
</g>
<path opacity="0.1" d="M33.0586 85.4594C37.3952 86.9157 42.6858 86.03 47.6059 86.1325C48.2798 86.1468 48.9923 86.1887 49.5327 86.4398C50.0731 86.691 50.3389 87.1008 50.7095 87.4478C52.0881 88.7466 54.9127 89.1641 57.3821 88.9438C59.8515 88.7235 62.1158 87.9942 64.4407 87.439C68.4685 86.4784 73.0732 86.0421 77.0458 87.0887C77.4109 87.1845 77.7947 87.2947 78.1851 87.2572C79.0564 87.1713 79.3156 86.4751 79.9244 86.0774C81.0273 85.3591 83.4129 85.5541 83.8949 84.6078C84.1783 84.057 83.5265 83.4842 82.8173 83.1052C80.102 81.6555 76.2175 81.4164 72.664 81.6401C69.1104 81.8637 65.6164 82.4806 62.0441 82.4828C57.5938 82.4828 53.2936 81.5365 48.8864 81.1487C45.8335 80.88 42.5017 80.913 39.6396 81.6996C36.546 82.561 35.8622 84.4823 33.0586 85.4594Z" fill="#154360"/>
<path d="M41.0844 20.369H40.3124V31.275H41.0844V20.369Z" fill="#535461"/>
<path d="M41.0844 35.0205H40.3124V41.1896H41.0844V35.0205Z" fill="#535461"/>
<path d="M70.4107 9.68325H46.0585C43.1896 9.68325 40.8638 12.0063 40.8638 14.8719V79.8455C40.8638 82.7111 43.1896 85.0342 46.0585 85.0342H70.4107C73.2797 85.0342 75.6054 82.7111 75.6054 79.8455V14.8719C75.6054 12.0063 73.2797 9.68325 70.4107 9.68325Z" fill="#535461"/>
<path d="M70.4107 13.2084H46.0585C43.1896 13.2084 40.8638 15.5315 40.8638 18.3971V76.6508C40.8638 79.5164 43.1896 81.8395 46.0585 81.8395H70.4107C73.2797 81.8395 75.6054 79.5164 75.6054 76.6508V18.3971C75.6054 15.5315 73.2797 13.2084 70.4107 13.2084Z" fill="#154360"/>
<path d="M60.7713 11.3357H55.8082C55.595 11.3357 55.4222 11.5083 55.4222 11.7213C55.4222 11.9342 55.595 12.1068 55.8082 12.1068H60.7713C60.9845 12.1068 61.1573 11.9342 61.1573 11.7213C61.1573 11.5083 60.9845 11.3357 60.7713 11.3357Z" fill="#EAEAF3"/>
<path d="M63.1426 12.3271C63.4471 12.3271 63.694 12.0805 63.694 11.7763C63.694 11.4721 63.4471 11.2255 63.1426 11.2255C62.838 11.2255 62.5911 11.4721 62.5911 11.7763C62.5911 12.0805 62.838 12.3271 63.1426 12.3271Z" fill="#EAEAF3"/>
<path d="M49.2239 43.6352V51.6771C49.2267 51.9292 49.1792 52.1794 49.0843 52.4131C48.9894 52.6468 48.849 52.8593 48.6711 53.0382C48.4933 53.2172 48.2816 53.3591 48.0484 53.4556C47.8151 53.5521 47.565 53.6014 47.3125 53.6005C46.2493 53.6005 45.217 52.7401 45.217 51.6771V43.6352C45.217 42.5865 46.246 41.7261 47.3125 41.7261C47.8188 41.7281 48.3038 41.9299 48.6618 42.2875C49.0198 42.6451 49.2218 43.1295 49.2239 43.6352ZM49.975 54.5347C49.9744 54.8046 50.0272 55.0721 50.1303 55.3216C50.2335 55.5711 50.385 55.7978 50.5761 55.9887C50.7672 56.1796 50.9942 56.3309 51.244 56.434C51.4939 56.537 51.7616 56.5898 52.0319 56.5892H53.4149L53.4359 60.8315C53.4359 63.3928 57.2729 63.373 57.2729 60.8315V56.5903H59.8581V60.8326C59.8581 63.3807 63.7183 63.3873 63.7183 60.8326V56.5903H65.1223C65.3915 56.5894 65.658 56.5356 65.9064 56.4319C66.1548 56.3282 66.3804 56.1766 66.5701 55.9858C66.7599 55.795 66.9102 55.5688 67.0124 55.32C67.1147 55.0712 67.1668 54.8047 67.166 54.5358V42.0764H49.975V54.5347ZM67.2123 41.4066H49.8966C49.8966 38.4323 51.6756 35.8523 54.3171 34.5061L52.9936 32.055C52.7995 31.7146 53.2925 31.5042 53.459 31.7917L54.8079 34.2637C55.9947 33.7451 57.2761 33.4774 58.5716 33.4774C59.867 33.4774 61.1484 33.7451 62.3352 34.2637L63.6764 31.7994C63.8506 31.5009 64.3381 31.7234 64.1418 32.0627L62.8183 34.5061C65.4333 35.8523 67.2123 38.4356 67.2123 41.4066ZM55.3472 37.551C55.3472 37.3576 55.2703 37.1721 55.1334 37.0353C54.9964 36.8985 54.8107 36.8217 54.6171 36.8217C54.4285 36.829 54.2501 36.909 54.1193 37.0449C53.9884 37.1807 53.9153 37.3619 53.9153 37.5504C53.9153 37.7389 53.9884 37.9201 54.1193 38.056C54.2501 38.1918 54.4285 38.2718 54.6171 38.2791C54.8102 38.2791 54.9954 38.2028 55.1322 38.0667C55.269 37.9307 55.3463 37.746 55.3472 37.5532V37.551ZM63.2297 37.551C63.2275 37.409 63.1832 37.2708 63.1025 37.154C63.0217 37.0371 62.908 36.9468 62.7759 36.8944C62.6437 36.8421 62.499 36.83 62.36 36.8597C62.221 36.8895 62.0939 36.9598 61.9949 37.0616C61.8958 37.1635 61.8292 37.2924 61.8035 37.432C61.7777 37.5717 61.794 37.7158 61.8503 37.8463C61.9065 37.9767 62.0002 38.0875 62.1195 38.1648C62.2388 38.242 62.3784 38.2822 62.5205 38.2802C62.7105 38.2759 62.8912 38.1973 63.0238 38.0614C63.1564 37.9254 63.2303 37.743 63.2297 37.5532V37.551ZM69.8185 41.7239C69.5673 41.7232 69.3184 41.7721 69.0862 41.8678C68.8539 41.9634 68.643 42.104 68.4653 42.2815C68.2877 42.4589 68.1469 42.6696 68.0511 42.9016C67.9553 43.1335 67.9064 43.3821 67.9071 43.633V51.6749C67.9061 51.9265 67.9548 52.1759 68.0503 52.4088C68.1458 52.6417 68.2863 52.8535 68.4638 53.0321C68.6413 53.2108 68.8523 53.3527 69.0847 53.4498C69.3172 53.547 69.5665 53.5974 69.8185 53.5983C70.8894 53.5983 71.914 52.7379 71.914 51.6749V43.633C71.9107 42.5667 70.8817 41.7261 69.8185 41.7261V41.7239Z" fill="white"/>
<path d="M57.242 62.7329H50.0731V63.0634H57.242V62.7329Z" fill="#535461"/>
<path d="M64.6315 62.7329H59.889V63.0634H64.6315V62.7329Z" fill="#535461"/>
<path d="M48.529 62.7329H43.7865V63.0634H48.529V62.7329Z" fill="#535461"/>
<path d="M72.1313 62.7329H67.3888V63.0634H72.1313V62.7329Z" fill="#535461"/>
</g>
<defs>
<clipPath id="clip0_9_35">
<rect width="121" height="89" fill="white"/>
</clipPath>
</defs>
</svg>
